<svg width="35" height="34" viewBox="0 0 35 34" fill="none" xmlns="http://www.w3.org/2000/svg">
<path d="M10.9375 2.125H24.0625V4.25H28.4375V6.375H30.625V10.625H32.8125V23.375H30.625V27.625H28.4375V29.75H24.0625V31.875H10.9375V29.75H6.5625V27.625H4.375V23.375H2.1875V10.625H4.375V6.375H6.5625V4.25H10.9375V2.125Z" fill="white"/>
<path d="M24.0625 0V2.125H10.9375V0H24.0625Z" fill="black"/>
<path d="M6.5625 4.25V2.125H10.9375V4.25H6.5625Z" fill="black"/>
<path d="M4.375 6.375V4.25H6.5625V6.375H4.375Z" fill="black"/>
<path d="M2.1875 10.625V6.375H4.375V10.625H2.1875Z" fill="black"/>
<path d="M2.1875 23.375H0V10.625H2.1875V23.375Z" fill="black"/>
<path d="M4.375 27.625H2.1875V23.375H4.375V27.625Z" fill="black"/>
<path d="M6.5625 29.75H4.375V27.625H6.5625V29.75Z" fill="black"/>
<path d="M10.9375 31.875H6.5625V29.75H10.9375V31.875Z" fill="black"/>
<path d="M24.0625 31.875V34H10.9375V31.875H24.0625Z" fill="black"/>
<path d="M28.4375 29.75V31.875H24.0625V29.75H28.4375Z" fill="black"/>
<path d="M30.625 27.625V29.75H28.4375V27.625H30.625Z" fill="black"/>
<path d="M32.8125 23.375V27.625H30.625V23.375H32.8125Z" fill="black"/>
<path d="M32.8125 10.625H35V23.375H32.8125V10.625Z" fill="black"/>
<path d="M30.625 6.375H32.8125V10.625H30.625V6.375Z" fill="black"/>
<path d="M28.4375 4.25H30.625V6.375H28.4375V4.25Z" fill="black"/>
<path d="M28.4375 4.25V2.125H24.0625V4.25H28.4375Z" fill="black"/>
<path d="M10.9375 23.375H13.125V25.5H15.3125V27.625H17.5V25.5H21.875V23.375H24.0625V19.125H21.875V17H17.5V14.875H13.125V10.625H21.875V12.75H24.0625V10.625H21.875V8.5H19.6875V6.375H17.5V8.5H13.125V10.625H10.9375V14.875H13.125V17H17.5V19.125H21.875V23.375H13.125V21.25H10.9375V23.375Z" fill="black"/>
</svg>
