<svg width="24" height="24" viewBox="0 0 24 24" fill="none" xmlns="http://www.w3.org/2000/svg">
<path d="M19 14H18V15H19V14Z" fill="black"/>
<path d="M6 6H5V7H6V6Z" fill="black"/>
<path d="M19 6H18V7H19V6Z" fill="black"/>
<path d="M7 16H6V17H7V16Z" fill="black"/>
<path d="M6 17H5V18H6V17Z" fill="black"/>
<path d="M4 17H5V7H4V17Z" fill="black"/>
<path d="M18 6V5H6V6H18Z" fill="black"/>
<path d="M19 14H20V7H19V14Z" fill="black"/>
<path d="M18 16V15H7V16H18Z" fill="black"/>
<path d="M6 17H5V7H6V6H18V7H19V14H18V15H7V16H6V17Z" fill="white"/>
</svg>
