<svg width="24" height="24" viewBox="0 0 24 24" fill="none" xmlns="http://www.w3.org/2000/svg">
<path d="M7.99341 6.01501H17.0005L16.9999 8.01501H15.9894L15 9.01501V10.0189L15.9894 11.015H16.9999L17.0005 13.015H7.99341V6.01501Z" fill="white"/>
<path d="M7 4V19.0067H8V14.0065H17.0005V13.0065H8V6.00647H16.9971V7.00647H15.9971V8.00647H14.9971V9.00647H13.9995V10.0065H14.9995V11.0065H15.9995V12.0065H16.9995L16.9971 13.0052L17.9971 13.0077L17.9995 12.0077L16.9995 12.0052V11.0065H15.9995V10.0065H14.9995V9.00647H15.9971V8.00647H16.9971V7.00647H17.9971V6.00647H17.0005V5.00647H8V4H7Z" fill="black"/>
</svg>
