<svg width="10" height="17" viewBox="0 0 10 17" fill="none" xmlns="http://www.w3.org/2000/svg">
<path d="M4 15.3125V11.3125H2V10.3125H3V2.3125H4V1.3125H6V2.3125H7V10.3125H8V11.3125H6V15.3125H4Z" fill="white"/>
<path fill-rule="evenodd" clip-rule="evenodd" d="M6 1.3125V0.3125H4V1.3125H3V2.3125H2V10.3125H1V11.3125H0V12.3125H3V15.3125H2V16.3125H8V15.3125H7V12.3125H10V11.3125H9V10.3125H8V2.3125H7V1.3125H6ZM6 1.3125V2.3125H7V9.3125H3V2.3125H4V1.3125H6ZM8 10.3125V11.3125H2V10.3125H8ZM4 12.3125H6V15.3125H4V12.3125Z" fill="black"/>
</svg>
