<svg width="14" height="14" viewBox="0 0 14 14" fill="none" xmlns="http://www.w3.org/2000/svg">
<path d="M12.9997 11.0001V13.0001H3.99969V12.0001H2.99969V2.00009H1.99969V4.00009H0.999695V1.00009H9.99969V2.00009H10.9997V10.0001H4.99969V11.0001H12.9997Z" fill="white"/>
<path d="M11 1L10 1L10 2H11V1Z" fill="black"/>
<path d="M3 12L4 12V13L3 13V12Z" fill="black"/>
<path d="M10 1V2.28086e-06L1 5.24537e-07V1L10 1Z" fill="black"/>
<path d="M1 1H0L1.21594e-06 4H1L1 1Z" fill="black"/>
<path d="M3 2H2V4L1 4L1 5H2L2 12H3L3 2Z" fill="black"/>
<path d="M9 5V4H5V5L9 5Z" fill="black"/>
<path d="M7 8V7H5V8L7 8Z" fill="black"/>
<path d="M5 10L5 11H13V10H12L12 2L11 2L11 10L5 10Z" fill="black"/>
<path d="M14 11H13V13L14 13V11Z" fill="black"/>
<path d="M4 13V14L13 14V13H4Z" fill="black"/>
</svg>
